<?xml version="1.0" encoding="UTF-8" standalone="no"?>
<svg
   xmlns:dc="http://purl.org/dc/elements/1.1/"
   xmlns:cc="http://creativecommons.org/ns#"
   xmlns:rdf="http://www.w3.org/1999/02/22-rdf-syntax-ns#"
   xmlns:svg="http://www.w3.org/2000/svg"
   xmlns="http://www.w3.org/2000/svg"
   xmlns:sodipodi="http://sodipodi.sourceforge.net/DTD/sodipodi-0.dtd"
   xmlns:inkscape="http://www.inkscape.org/namespaces/inkscape"
   viewBox="0 0 200 200"
   version="1.1"
   x="0px"
   y="0px"
   id="svg2"
   inkscape:version="0.91 r13725"
   sodipodi:docname="inward.svg"
   width="200"
   height="200">
  <metadata
     id="metadata16">
    <rdf:RDF>
      <cc:Work
         rdf:about="">
        <dc:format>image/svg+xml</dc:format>
        <dc:type
           rdf:resource="http://purl.org/dc/dcmitype/StillImage" />
        <dc:title />
      </cc:Work>
    </rdf:RDF>
  </metadata>
  <defs
     id="defs14" />
  <sodipodi:namedview
     pagecolor="#ffffff"
     bordercolor="#666666"
     borderopacity="1"
     objecttolerance="10"
     gridtolerance="10"
     guidetolerance="10"
     inkscape:pageopacity="0"
     inkscape:pageshadow="2"
     inkscape:window-width="1138"
     inkscape:window-height="691"
     id="namedview12"
     showgrid="false"
     inkscape:zoom="1.888"
     inkscape:cx="-103.60169"
     inkscape:cy="62.5"
     inkscape:window-x="101"
     inkscape:window-y="51"
     inkscape:window-maximized="0"
     inkscape:current-layer="g4" />
  <g
     transform="translate(0,-877.36216)"
     id="g4">
    <path
       d="m 140.89121,976.362 c 0,-1.29535 0.56582,-2.58951 1.64838,-3.64608 1.08257,-1.05697 2.68094,-1.87398 4.65549,-2.25281 1.97455,-0.37864 4.32348,-0.31691 6.83805,0.31553 2.51458,0.63224 5.19238,1.83638 7.78766,3.65319 2.59527,1.81661 5.10538,4.24589 7.28519,7.23202 2.17983,2.98614 4.02699,6.52796 5.33479,10.48068 1.3078,3.9525 2.07442,8.31367 2.16371,12.87057 0.0893,4.5567 -0.49974,9.3063 -1.81139,13.999 -1.31166,4.6925 -3.34595,9.3255 -6.04779,13.6489 -2.70184,4.3234 -6.07027,8.3353 -9.95842,11.8233 -3.88816,3.4882 -8.29421,6.4506 -13.00101,8.7448 -4.70676,2.2941 -9.7119,3.9191 -14.76003,4.8217 -5.04809,0.9031 -10.13658,1.0841 -15.00975,0.5885 -4.87317,-0.4957 -9.52861,-1.6672 -13.74816,-3.3787 -4.219549,-1.712 -8.001353,-3.9622 -11.196881,-6.5462 -3.195524,-2.5839 -5.803792,-5.4993 -7.767359,-8.5035 -1.96359,-3.0039 -3.282497,-6.0941 -3.998009,-9.0272 -0.715533,-2.9331 -0.828646,-5.7066 -0.471941,-8.1138 0.356706,-2.4072 1.1814,-4.4458 2.271654,-5.9776 1.090253,-1.5315 2.443639,-2.5548 3.819767,-3.0199 1.376148,-0.4649 2.77247,-0.3718 3.948389,0.234 1.17592,0.6053 2.129073,1.7218 2.65642,3.2142 0.527368,1.4925 0.627114,3.3589 0.165873,5.3963 -0.461302,2.0371 -1.484616,4.2428 -3.112487,6.3774 -1.627868,2.1344 -3.860277,4.1952 -6.641345,5.9432 -2.781088,1.7477 -6.109841,3.1806 -9.839603,4.0963 -3.729758,0.9159 -7.858692,1.3134 -12.170758,1.0601 -4.312085,-0.2534 -8.804897,-1.1586 -13.225207,-2.7576 -4.42031,-1.5988 -8.765508,-3.892 -12.782936,-6.8235 -4.017448,-2.9316 -7.704721,-6.5009 -10.847612,-10.5624 -3.142889,-4.0615 -5.739583,-8.6136 -7.646401,-13.4421 -1.906816,-4.8284 -3.122757,-9.93067 -3.596124,-15.05549 -0.473368,-5.12481 -0.204161,-10.2694 0.759792,-15.18194 0.963974,-4.91274 2.621698,-9.59105 4.833381,-13.82012 2.211663,-4.22926 4.975452,-8.00749 8.080907,-11.18867 3.105478,-3.18159 6.550241,-5.76477 10.085335,-7.69354 3.535113,-1.92878 7.157932,-3.20316 10.618812,-3.86349 3.460882,-0.66053 6.757398,-0.70821 9.676951,-0.27319 2.919575,0.43461 5.460331,1.35013 7.478878,2.54677 2.018525,1.19683 3.513821,2.67239 4.433044,4.19028 0.919227,1.51791 1.262382,3.07537 1.074747,4.4354 -0.187676,1.36043 -0.905043,2.52067 -2.016263,3.2811 -1.111223,0.76023 -2.614442,1.11869 -4.304385,0.94321 -1.689958,-0.17606 -3.564252,-0.88604 -5.38037,-2.17447 -1.816116,-1.28842 -3.571467,-3.15468 -5.024009,-5.54557 -1.452545,-2.39069 -2.599896,-5.30483 -3.238237,-8.59977 -0.638364,-3.29494 -0.765926,-6.96891 -0.249095,-10.81123 0.516813,-3.84232 1.678977,-7.85067 3.528452,-11.77791 1.849455,-3.92725 4.386219,-7.77083 7.553154,-11.28433 3.166935,-3.51351 6.963065,-6.69455 11.239755,-9.33461 4.27671,-2.64 9.032168,-4.73719 14.047784,-6.15225 5.015615,-1.41507 10.289003,-2.14702 15.563677,-2.14702 5.27468,0 10.54807,0.73195 15.56368,2.14702 5.01562,1.41506 9.77107,3.51225 14.04777,6.15225 4.2767,2.64006 8.07283,5.8211 11.23977,9.33461 3.16693,3.5135 5.70368,7.35708 7.55316,11.28433 1.84947,3.92724 3.01163,7.93559 3.52844,11.77791 0.51681,3.84232 0.38927,7.51629 -0.24909,10.81123 -0.63836,3.29494 -1.78569,6.20908 -3.23823,8.59977 -1.45255,2.39089 -3.2079,4.25715 -5.02402,5.54557 -1.81611,1.28843 -3.69041,1.99881 -5.38037,2.17447 -1.68994,0.17607 -3.19316,-0.18199 -4.30438,-0.94321 -1.11124,-0.76043 -1.82865,-1.92067 -2.01627,-3.2811 -0.18767,-1.36003 0.15548,-2.91749 1.07475,-4.4354 0.91921,-1.51789 2.41453,-2.99345 4.43304,-4.19028 2.01853,-1.19664 4.55931,-2.11216 7.47887,-2.54677 2.91957,-0.43502 6.21609,-0.38734 9.67697,0.27319 3.46088,0.66033 7.08369,1.93471 10.61878,3.86349 3.53512,1.92877 6.97989,4.51195 10.08534,7.69354 3.10549,3.18118 5.86927,6.95941 8.08093,11.18867 2.21169,4.22907 3.86941,8.90738 4.83336,13.82012 0.96398,4.91254 1.23318,10.05713 0.75981,15.18194 -0.47336,5.12482 -1.6893,10.22709 -3.59612,15.05549 -1.90682,4.8285 -4.50352,9.3806 -7.6464,13.4421 -3.14291,4.0615 -6.83017,7.6308 -10.84761,10.5624 -4.01743,2.9315 -8.36263,5.2247 -12.78294,6.8235 -4.42031,1.599 -8.91312,2.5042 -13.22521,2.7576 -4.31206,0.2533 -8.441,-0.1444 -12.17076,-1.0601 -3.72976,-0.9157 -7.05851,-2.3486 -9.8396,-4.0963 -2.78106,-1.748 -5.01347,-3.8088 -6.64135,-5.9432 -1.62786,-2.1346 -2.65117,-4.3403 -3.11248,-6.3774 -0.46128,-2.0374 -0.36154,-3.9038 0.16588,-5.3963 0.52734,-1.4924 1.48047,-2.6089 2.65639,-3.2142 1.17593,-0.6058 2.57225,-0.6989 3.94839,-0.234 1.37615,0.4651 2.72954,1.4884 3.81979,3.0199 1.09023,1.5318 1.91494,3.5704 2.27165,5.9776 0.35671,2.4072 0.24357,5.1807 -0.47194,8.1138 -0.71551,2.9331 -2.03442,6.0233 -3.99801,9.0272 -1.96358,3.0042 -4.57184,5.9196 -7.76735,8.5035 -3.19556,2.584 -6.97736,4.8342 -11.19689,6.5462 -4.21955,1.7115 -8.874995,2.883 -13.748153,3.3787 -4.873176,0.4956 -9.961662,0.3146 -15.00978,-0.5885 -5.048097,-0.9026 -10.05324,-2.5276 -14.760035,-4.8217 -4.706775,-2.2942 -9.11282,-5.2566 -13.000975,-8.7448 -3.888155,-3.488 -7.256581,-7.4999 -9.958423,-11.8233 -2.701861,-4.3234 -4.736138,-8.9564 -6.047792,-13.6489 -1.311653,-4.6927 -1.900703,-9.4423 -1.81141,-13.999 0.08926,-4.5569 0.855934,-8.91807 2.163736,-12.87057 1.307801,-3.95272 3.154953,-7.49454 5.334766,-10.48068 2.179832,-2.98613 4.689943,-5.41541 7.28521,-7.23202 2.595248,-1.81681 5.273086,-3.02095 7.787659,-3.65319 2.514573,-0.63244 4.863497,-0.69417 6.838049,-0.31553 1.974551,0.37883 3.572915,1.19584 4.655488,2.25281 1.082568,1.05657 1.648367,2.35073 1.648367,3.64608 0,1.29534 -0.565799,2.5893 -1.648367,3.64607 -1.082573,1.05697 -2.680937,1.87398 -4.655488,2.25261 -1.974552,0.37864 -4.323476,0.31711 -6.838049,-0.31533 -2.514573,-0.63244 -5.192411,-1.83639 -7.787659,-3.65299 -2.595267,-1.81682 -5.105378,-4.24628 -7.28521,-7.23242 -2.179813,-2.98594 -4.026965,-6.52777 -5.334766,-10.48048 -1.307802,-3.9525 -2.074443,-8.31391 -2.163736,-12.87057 -0.08926,-4.55686 0.499757,-9.30658 1.81141,-13.99895 1.311654,-4.69276 3.345931,-9.32557 6.047792,-13.64906 2.701842,-4.32348 6.070268,-8.33528 9.958423,-11.82334 3.888155,-3.48805 8.2942,-6.45056 13.000975,-8.74473 4.706795,-2.29413 9.711938,-3.91898 14.760035,-4.8219 5.048118,-0.90292 10.136604,-1.08399 15.00978,-0.58829 4.873158,0.49569 9.528603,1.66716 13.748153,3.37891 4.21953,1.71176 8.00133,3.96202 11.19689,6.546 3.19551,2.58397 5.80377,5.49929 7.76735,8.50335 1.96359,3.00406 3.2825,6.09432 3.99801,9.02738 0.71551,2.93314 0.82865,5.70662 0.47194,8.11374 -0.35671,2.40711 -1.18142,4.44588 -2.27165,5.97761 -1.09025,1.53155 -2.44364,2.5547 -3.81979,3.01977 -1.37614,0.46509 -2.77246,0.37152 -3.94839,-0.23382 -1.17592,-0.60534 -2.12905,-1.72185 -2.65639,-3.21423 -0.52738,-1.49238 -0.62712,-3.35884 -0.16588,-5.39622 0.46131,-2.03718 1.48462,-4.24291 3.11248,-6.3776 1.62788,-2.13445 3.86029,-4.19521 6.64135,-5.94306 2.78109,-1.74787 6.10984,-3.18046 9.8396,-4.09637 3.72976,-0.91591 7.8587,-1.31337 12.17076,-1.06001 4.31209,0.25333 8.8049,1.15843 13.22521,2.75745 4.42031,1.59903 8.76551,3.89198 12.78294,6.8236 4.01744,2.93162 7.7047,6.50074 10.84761,10.56225 3.14288,4.06151 5.73958,8.61382 7.6464,13.44208 1.90682,4.82867 3.12276,9.93092 3.59612,15.05573 0.47337,5.12481 0.20417,10.26939 -0.75981,15.18194 -0.96395,4.91273 -2.62167,9.59086 -4.83336,13.82012 -2.21166,4.22909 -4.97544,8.00749 -8.08093,11.18866 -3.10545,3.1814 -6.55022,5.7646 -10.08534,7.6936 -3.53509,1.9285 -7.1579,3.2031 -10.61878,3.8634 -3.46088,0.6605 -6.7574,0.708 -9.67697,0.2732 -2.91956,-0.4348 -5.46034,-1.3503 -7.47887,-2.547 -2.01851,-1.1966 -3.51383,-2.6721 -4.43304,-4.1902 -0.91922,-1.5178 -1.26238,-3.0752 -1.07475,-4.4355 0.18768,-1.3601 0.90503,-2.52037 2.01627,-3.28087 1.11122,-0.7602 2.61444,-1.1187 4.30438,-0.9432 1.68996,0.1761 3.56426,0.8861 5.38037,2.1745 1.81612,1.28817 3.57147,3.15467 5.02402,5.54537 1.45254,2.3908 2.59987,5.305 3.23823,8.6 0.63836,3.2949 0.7659,6.9689 0.24909,10.8112 -0.51681,3.8423 -1.67897,7.8506 -3.52844,11.7778 -1.84948,3.9274 -4.38623,7.7709 -7.55316,11.2844 -3.16694,3.5136 -6.96307,6.6945 -11.23977,9.3345 -4.2767,2.6401 -9.03215,4.7373 -14.04777,6.1523 -5.01561,1.415 -10.289,2.1472 -15.56368,2.1472 -5.274674,0 -10.548062,-0.7322 -15.563677,-2.1472 -5.015616,-1.415 -9.771074,-3.5122 -14.047784,-6.1523 -4.27669,-2.64 -8.07282,-5.8209 -11.239755,-9.3345 -3.166935,-3.5135 -5.703699,-7.357 -7.553154,-11.2844 -1.849475,-3.9272 -3.011639,-7.9355 -3.528452,-11.7778 -0.516831,-3.8423 -0.389269,-7.5163 0.249095,-10.8112 0.638341,-3.295 1.785692,-6.2092 3.238237,-8.6 1.452542,-2.3907 3.207893,-4.2572 5.024009,-5.54537 1.816118,-1.2884 3.690412,-1.999 5.38037,-2.1745 1.689943,-0.1761 3.193162,0.182 4.304385,0.9432 1.11122,0.7605 1.828649,1.92077 2.016263,3.28087 0.187675,1.3603 -0.155469,2.9177 -1.074747,4.4355 -0.919223,1.5181 -2.414519,2.9936 -4.433044,4.1902 -2.018547,1.1967 -4.559303,2.1122 -7.478878,2.547 -2.919553,0.4348 -6.216069,0.3873 -9.676951,-0.2732 -3.46088,-0.6603 -7.083699,-1.9349 -10.618812,-3.8634 -3.535094,-1.929 -6.979857,-4.5122 -10.085335,-7.6936 -3.105455,-3.18117 -5.869244,-6.95957 -8.080907,-11.18866 -2.211683,-4.22926 -3.869407,-8.90739 -4.833381,-13.82012 -0.963953,-4.91255 -1.23316,-10.05713 -0.759792,-15.18194 0.473367,-5.12481 1.689308,-10.22706 3.596124,-15.05573 1.906818,-4.82826 4.503512,-9.38057 7.646401,-13.44208 3.142891,-4.06151 6.830164,-7.63063 10.847612,-10.56225 4.017428,-2.93162 8.362626,-5.22457 12.782936,-6.8236 4.42031,-1.59902 8.913122,-2.50412 13.225207,-2.75745 4.312066,-0.25336 8.441,0.14402 12.170758,1.06001 3.729762,0.91591 7.058515,2.3485 9.839603,4.09637 2.781068,1.74785 5.013477,3.80861 6.641345,5.94306 1.627871,2.13469 2.651185,4.34042 3.112487,6.3776 0.461285,2.03738 0.361538,3.90384 -0.165873,5.39622 -0.527347,1.49238 -1.4805,2.60889 -2.65642,3.21423 -1.175919,0.60534 -2.572241,0.69891 -3.948389,0.23382 -1.376128,-0.46507 -2.729514,-1.48822 -3.819767,-3.01977 -1.090254,-1.53173 -1.914948,-3.5705 -2.271654,-5.97761 -0.356705,-2.40712 -0.243592,-5.1806 0.471941,-8.11374 0.715512,-2.93306 2.034419,-6.02332 3.998009,-9.02738 1.963567,-3.00406 4.571835,-5.91938 7.767359,-8.50335 3.195528,-2.58398 6.977332,-4.83424 11.196881,-6.546 4.21955,-1.71175 8.87499,-2.88322 13.74816,-3.37891 4.87317,-0.4957 9.96166,-0.31463 15.00975,0.58829 5.04813,0.90292 10.05327,2.52777 14.76003,4.8219 4.7068,2.29417 9.11285,5.25668 13.00101,8.74473 3.88815,3.48806 7.25658,7.49986 9.95842,11.82334 2.70184,4.32349 4.73613,8.9563 6.04779,13.64906 1.31165,4.69237 1.90071,9.44209 1.81139,13.99895 -0.0893,4.55666 -0.85591,8.91807 -2.16371,12.87057 -1.3078,3.95271 -3.15496,7.49454 -5.33479,10.48048 -2.17981,2.98614 -4.68992,5.4156 -7.28519,7.23242 -2.59528,1.8166 -5.27308,3.02055 -7.78766,3.65299 -2.51457,0.63244 -4.8635,0.69397 -6.83805,0.31533 -1.97455,-0.37863 -3.57292,-1.19564 -4.65549,-2.25261 -1.08256,-1.05677 -1.64838,-2.35073 -1.64838,-3.64607 z"
       style="fill:none;stroke:#d3eecd;stroke-width:2.0194459;stroke-opacity:1"
       id="path6"
       inkscape:connector-curvature="0" />
  </g>
</svg>
