<?xml version="1.0" encoding="UTF-8" standalone="no"?>
<svg
   xmlns:dc="http://purl.org/dc/elements/1.1/"
   xmlns:cc="http://creativecommons.org/ns#"
   xmlns:rdf="http://www.w3.org/1999/02/22-rdf-syntax-ns#"
   xmlns:svg="http://www.w3.org/2000/svg"
   xmlns="http://www.w3.org/2000/svg"
   xmlns:sodipodi="http://sodipodi.sourceforge.net/DTD/sodipodi-0.dtd"
   xmlns:inkscape="http://www.inkscape.org/namespaces/inkscape"
   viewBox="0 0 200 200"
   version="1.1"
   x="0px"
   y="0px"
   id="svg2"
   inkscape:version="0.91 r13725"
   sodipodi:docname="outward.svg"
   width="200"
   height="200">
  <metadata
     id="metadata16">
    <rdf:RDF>
      <cc:Work
         rdf:about="">
        <dc:format>image/svg+xml</dc:format>
        <dc:type
           rdf:resource="http://purl.org/dc/dcmitype/StillImage" />
        <dc:title />
      </cc:Work>
    </rdf:RDF>
  </metadata>
  <defs
     id="defs14" />
  <sodipodi:namedview
     pagecolor="#ffffff"
     bordercolor="#666666"
     borderopacity="1"
     objecttolerance="10"
     gridtolerance="10"
     guidetolerance="10"
     inkscape:pageopacity="0"
     inkscape:pageshadow="2"
     inkscape:window-width="1402"
     inkscape:window-height="804"
     id="namedview12"
     showgrid="false"
     inkscape:zoom="1.888"
     inkscape:cx="65.889831"
     inkscape:cy="83.686441"
     inkscape:window-x="96"
     inkscape:window-y="123"
     inkscape:window-maximized="0"
     inkscape:current-layer="g4" />
  <g
     transform="translate(0,-877.36216)"
     id="g4">
    <path
       d="m 189.29661,977.53077 c 0,-4.7956 -1.53602,-9.5886 -4.50292,-13.8918 -2.9669,-4.3032 -7.3626,-8.1116 -12.88742,-11.016 -5.5248,-2.9044 -12.17488,-4.901 -19.5007,-5.7238 -7.3258,-0.823 -15.32232,-0.4702 -23.45714,1.1368 -8.1348,1.6068 -16.4025,4.4678 -24.26678,8.459 -7.8643,3.9912 -15.32018,9.1106 -21.90676,15.0484 -6.58656,5.9378 -12.29994,12.69 -16.82188,19.806 -4.52192,7.11576 -7.85026,14.59033 -9.8546,21.89853 -2.00436,7.3082 -2.68466,14.4448 -2.1148,20.8894 0.56986,6.4446 2.38788,12.1924 5.1907,16.8066 2.80284,4.6142 6.5867,8.091 10.94248,10.1438 4.3558,2.0526 9.27856,2.6794 14.27926,1.7876 5.00068,-0.8918 10.07394,-3.3018 14.72856,-7.113 4.65462,-3.811 8.88568,-9.0208 12.27774,-15.3184 3.39204,-6.2976 5.94132,-13.6792 7.37416,-21.6848 1.43284,-8.0056 1.7472,-16.6302 0.85518,-25.33273 -0.89202,-8.7026 -2.9904,-17.4778 -6.18206,-25.782 -3.19168,-8.3044 -7.47456,-16.1328 -12.55054,-23.0196 -5.07598,-6.8866 -10.94124,-12.8274 -17.15728,-17.5012 -6.21606,-4.67378 -12.77794,-8.07826 -19.17344,-10.082 -6.39552,-2.00374 -12.61926,-2.60668 -18.16384,-1.88378 -5.54456,0.7229 -10.405,2.76964 -14.157,5.8737 -3.75198,3.10408 -6.39174,7.26168 -7.64432,12.05868 -1.2526,4.7968 -1.11598,10.228 0.49138,15.7974 1.60738,5.5696 4.68544,11.2718 9.10732,16.607 4.4219,5.3352 10.1855,10.2984 16.97182,14.464 6.78632,4.1654 14.59148,7.5294 22.94966,9.807 8.35818,2.2774 17.26434,3.4662 26.17322,3.4662 8.90888,0 17.81504,-1.1888 26.17322,-3.4662 8.35816,-2.2776 16.16334,-5.6416 22.94966,-9.807 6.78632,-4.1656 12.54992,-9.1288 16.9718,-14.464 4.4219,-5.3352 7.49996,-11.0374 9.10732,-16.607 1.60738,-5.5694 1.74398,-11.0006 0.4914,-15.7974 -1.25258,-4.797 -3.89234,-8.9546 -7.64434,-12.05868 -3.75198,-3.10406 -8.61242,-5.1508 -14.157,-5.8737 -5.54456,-0.7229 -11.76832,-0.12 -18.16382,1.88378 -6.3955,2.00374 -12.95738,5.40822 -19.17344,10.082 -6.21606,4.6738 -12.08132,10.6146 -17.1573,17.5012 -5.07598,6.8868 -9.35886,14.7152 -12.55052,23.0196 -3.19168,8.3042 -5.29004,17.0794 -6.18206,25.782 -0.89202,8.70253 -0.57766,17.32713 0.85518,25.33273 1.43284,8.0056 3.9821,15.3872 7.37416,21.6848 3.39206,6.2976 7.6231,11.5074 12.27774,15.3184 4.65462,3.8112 9.72788,6.2212 14.72856,7.113 5.00068,0.8918 9.92346,0.265 14.27924,-1.7876 4.3558,-2.0528 8.13966,-5.5296 10.94248,-10.1438 2.80282,-4.6142 4.62084,-10.362 5.19072,-16.8066 0.56986,-6.4446 -0.1104,-13.5812 -2.1148,-20.8894 -2.00434,-7.3082 -5.3327,-14.78277 -9.85462,-21.89853 -4.52192,-7.116 -10.2353,-13.8682 -16.82188,-19.806 -6.58656,-5.9378 -14.04244,-11.0572 -21.90674,-15.0484 -7.8643,-3.9912 -16.13198,-6.8522 -24.26678,-8.459 -8.13482,-1.607 -16.13134,-1.9598 -23.45716,-1.1368 -7.3258,0.8228 -13.97588,2.8194 -19.5007,5.7238 -5.5248,2.9044 -9.9205,6.7128 -12.8874,11.016 -2.9669,4.3032 -4.50292,9.0962 -4.50292,13.8918 0,4.7956 1.53602,9.5884 4.50292,13.8916 2.9669,4.30316 7.3626,8.11156 12.8874,11.01593 5.52482,2.9044 12.1749,4.901 19.5007,5.7238 7.32582,0.823 15.32234,0.4702 23.45716,-1.1366 8.1348,-1.607 16.40248,-4.4678 24.26678,-8.45917 7.8643,-3.9912 15.32018,-9.11056 21.90674,-15.04836 6.58658,-5.9378 12.29996,-12.69 16.82188,-19.8058 4.52192,-7.116 7.85028,-14.5906 9.85462,-21.8988 2.00436,-7.3082 2.68466,-14.4446 2.1148,-20.88932 -0.56988,-6.44462 -2.3879,-12.1924 -5.19072,-16.80658 -2.80282,-4.6142 -6.58668,-8.091 -10.94248,-10.14376 -4.35578,-2.05274 -9.27856,-2.6794 -14.27924,-1.78764 -5.00068,0.89174 -10.07394,3.30186 -14.72856,7.1129 -4.65464,3.81104 -8.88568,9.02092 -12.27774,15.31852 -3.39206,6.2976 -5.94132,13.67908 -7.37416,21.68468 -1.43284,8.0056 -1.7472,16.6302 -0.85518,25.3328 0.89202,8.7026 2.99038,17.4778 6.18206,25.782 3.19166,8.30436 7.47454,16.13293 12.55052,23.01953 5.07598,6.8866 10.94124,12.8276 17.1573,17.5012 6.21606,4.6738 12.77794,8.0784 19.17344,10.082 6.3955,2.0038 12.61926,2.6068 18.16382,1.8838 5.54458,-0.7228 10.40502,-2.7696 14.157,-5.8736 3.752,-3.1042 6.39176,-7.2618 7.64434,-12.0586 1.25258,-4.797 1.11598,-10.2282 -0.4914,-15.7976 -1.60736,-5.5694 -4.68542,-11.27177 -9.10732,-16.60693 -4.42188,-5.3352 -10.18548,-10.2984 -16.9718,-14.464 -6.78632,-4.1654 -14.5915,-7.5294 -22.94966,-9.8068 -8.35818,-2.2776 -17.26434,-3.4664 -26.17322,-3.4664 -8.90888,0 -17.81504,1.1888 -26.17322,3.4664 -8.35818,2.2774 -16.16334,5.6414 -22.94966,9.8068 -6.78632,4.1656 -12.54992,9.1288 -16.97182,14.464 -4.42188,5.33516 -7.49994,11.03753 -9.10732,16.60693 -1.60736,5.5694 -1.74398,11.0006 -0.49138,15.7976 1.25258,4.7968 3.89234,8.9544 7.64432,12.0586 3.752,3.104 8.61244,5.1508 14.157,5.8736 5.54458,0.723 11.76832,0.12 18.16384,-1.8838 6.3955,-2.0036 12.95738,-5.4082 19.17344,-10.082 6.21604,-4.6736 12.0813,-10.6146 17.15728,-17.5012 5.07598,-6.8866 9.35886,-14.71517 12.55054,-23.01953 3.19166,-8.3042 5.29004,-17.0794 6.18206,-25.782 0.89202,-8.7026 0.57766,-17.3272 -0.85518,-25.3328 -1.43284,-8.0056 -3.98212,-15.38708 -7.37416,-21.68468 -3.39206,-6.2976 -7.62312,-11.50748 -12.27774,-15.31852 -4.65462,-3.81104 -9.72788,-6.22116 -14.72856,-7.1129 -5.0007,-0.89176 -9.92346,-0.2651 -14.27926,1.78764 -4.35578,2.05276 -8.13964,5.52956 -10.94248,10.14376 -2.80282,4.61418 -4.62084,10.36196 -5.1907,16.80658 -0.56986,6.44472 0.1104,13.58112 2.1148,20.88932 2.00434,7.3082 5.33268,14.7828 9.8546,21.8988 4.52194,7.1158 10.23532,13.868 16.82188,19.8058 6.58658,5.9378 14.04246,11.05716 21.90676,15.04836 7.86428,3.99137 16.13198,6.85217 24.26678,8.45917 8.13482,1.6068 16.13134,1.9596 23.45714,1.1366 7.32582,-0.8228 13.9759,-2.8194 19.5007,-5.7238 5.52482,-2.90437 9.92052,-6.71277 12.88742,-11.01593 2.9669,-4.3032 4.50292,-9.096 4.50292,-13.8916 z"
       style="fill:none;stroke:#2f8ec0;stroke-width:2;stroke-opacity:1"
       id="path6"
       inkscape:connector-curvature="0" />
  </g>
</svg>
