<svg xmlns="http://www.w3.org/2000/svg" width="1920" height="1080"><path d="M-132,-271L145,-229L291,-223Z" fill="#e4f5dd" stroke="#e4f5dd" stroke-width="1.51"/><path d="M-132,-271L291,-223L533,-237Z" fill="#e0f3d9" stroke="#e0f3d9" stroke-width="1.51"/><path d="M-132,-271L533,-237L840,-241Z" fill="#d8f0d4" stroke="#d8f0d4" stroke-width="1.51"/><path d="M650,1339L491,1351L1250,1338Z" fill="#5d8ca5" stroke="#5d8ca5" stroke-width="1.51"/><path d="M-132,-271L840,-241L1587,-250Z" fill="#c4e8d2" stroke="#c4e8d2" stroke-width="1.51"/><path d="M840,-241L1103,-231L1587,-250Z" fill="#addadc" stroke="#addadc" stroke-width="1.51"/><path d="M1250,1338L491,1351L1840,1344Z" fill="#3d7fad" stroke="#3d7fad" stroke-width="1.51"/><path d="M1626,1334L1250,1338L1840,1344Z" fill="#226da6" stroke="#226da6" stroke-width="1.51"/><path d="M-132,-271L1587,-250L2135,-253Z" fill="#aedadd" stroke="#aedadd" stroke-width="1.51"/><path d="M1587,-250L1863,-235L2135,-253Z" fill="#95b3ce" stroke="#95b3ce" stroke-width="1.51"/><path d="M2064,310L2152,333L2209,100Z" fill="#7296a9" stroke="#7296a9" stroke-width="1.51"/><path d="M2002,144L2064,310L2209,100Z" fill="#789bae" stroke="#789bae" stroke-width="1.51"/><path d="M2152,333L2031,535L2232,554Z" fill="#598faa" stroke="#598faa" stroke-width="1.51"/><path d="M2209,100L2152,333L2232,554Z" fill="#6990a2" stroke="#6990a2" stroke-width="1.51"/><path d="M1947,689L2164,918L2238,713Z" fill="#3281b4" stroke="#3281b4" stroke-width="1.51"/><path d="M2232,554L2031,535L2238,713Z" fill="#4987ad" stroke="#4987ad" stroke-width="1.51"/><path d="M2031,535L1947,689L2238,713Z" fill="#458bb5" stroke="#458bb5" stroke-width="1.51"/><path d="M2164,918L2062,1121L2244,1152Z" fill="#1766a4" stroke="#1766a4" stroke-width="1.51"/><path d="M2062,1121L2137,1278L2244,1152Z" fill="#095c9f" stroke="#095c9f" stroke-width="1.51"/><path d="M2238,713L2164,918L2244,1152Z" fill="#236da6" stroke="#236da6" stroke-width="1.51"/><path d="M1947,689L1946,875L2164,918Z" fill="#2d82b8" stroke="#2d82b8" stroke-width="1.51"/><path d="M2187,-84L1968,-11L2209,100Z" fill="#829db5" stroke="#829db5" stroke-width="1.51"/><path d="M1968,-11L2002,144L2209,100Z" fill="#81a0b5" stroke="#81a0b5" stroke-width="1.51"/><path d="M2064,310L2031,535L2152,333Z" fill="#6496ac" stroke="#6496ac" stroke-width="1.51"/><path d="M2135,-253L1981,-170L2187,-84Z" fill="#8ba2be" stroke="#8ba2be" stroke-width="1.51"/><path d="M1981,-170L1968,-11L2187,-84Z" fill="#88a4be" stroke="#88a4be" stroke-width="1.51"/><path d="M1946,875L2062,1121L2164,918Z" fill="#1e73ae" stroke="#1e73ae" stroke-width="1.51"/><path d="M1863,-235L1981,-170L2135,-253Z" fill="#90aac8" stroke="#90aac8" stroke-width="1.51"/><path d="M2062,1121L2017,1331L2137,1278Z" fill="#095b9e" stroke="#095b9e" stroke-width="1.51"/><path d="M1866,376L1854,506L2031,535Z" fill="#5e9db7" stroke="#5e9db7" stroke-width="1.51"/><path d="M1850,1107L2017,1331L2062,1121Z" fill="#0866aa" stroke="#0866aa" stroke-width="1.51"/><path d="M1946,875L1850,1107L2062,1121Z" fill="#1975b2" stroke="#1975b2" stroke-width="1.51"/><path d="M1866,376L2031,535L2064,310Z" fill="#659bb3" stroke="#659bb3" stroke-width="1.51"/><path d="M2002,144L1866,376L2064,310Z" fill="#73a0b2" stroke="#73a0b2" stroke-width="1.51"/><path d="M1787,164L1866,376L2002,144Z" fill="#7aa7b7" stroke="#7aa7b7" stroke-width="1.51"/><path d="M1850,1107L1840,1344L2017,1331Z" fill="#0e63a5" stroke="#0e63a5" stroke-width="1.51"/><path d="M1854,506L1947,689L2031,535Z" fill="#4f97bb" stroke="#4f97bb" stroke-width="1.51"/><path d="M1053,1300L650,1339L1250,1338Z" fill="#4e89aa" stroke="#4e89aa" stroke-width="1.51"/><path d="M1826,864L1850,1107L1946,875Z" fill="#2480b9" stroke="#2480b9" stroke-width="1.51"/><path d="M1968,-11L1787,164L2002,144Z" fill="#83a9bb" stroke="#83a9bb" stroke-width="1.51"/><path d="M1854,506L1799,685L1947,689Z" fill="#4a99be" stroke="#4a99be" stroke-width="1.51"/><path d="M1826,864L1946,875L1947,689Z" fill="#318abf" stroke="#318abf" stroke-width="1.51"/><path d="M1863,-235L1756,-13L1968,-11Z" fill="#8dafc6" stroke="#8dafc6" stroke-width="1.51"/><path d="M1756,-13L1787,164L1968,-11Z" fill="#88afc1" stroke="#88afc1" stroke-width="1.51"/><path d="M1863,-235L1968,-11L1981,-170Z" fill="#8dacc7" stroke="#8dacc7" stroke-width="1.51"/><path d="M1103,-231L1452,-207L1587,-250Z" fill="#a4cfdb" stroke="#a4cfdb" stroke-width="1.51"/><path d="M1799,685L1826,864L1947,689Z" fill="#3993c2" stroke="#3993c2" stroke-width="1.51"/><path d="M1594,1160L1626,1334L1840,1344Z" fill="#1c6da9" stroke="#1c6da9" stroke-width="1.51"/><path d="M1826,864L1568,877L1850,1107Z" fill="#2986bc" stroke="#2986bc" stroke-width="1.51"/><path d="M1568,877L1594,1160L1850,1107Z" fill="#2582b9" stroke="#2582b9" stroke-width="1.51"/><path d="M1594,1160L1840,1344L1850,1107Z" fill="#1770af" stroke="#1770af" stroke-width="1.51"/><path d="M1637,543L1799,685L1854,506Z" fill="#53a1bf" stroke="#53a1bf" stroke-width="1.51"/><path d="M1587,-250L1756,-13L1863,-235Z" fill="#94b9cd" stroke="#94b9cd" stroke-width="1.51"/><path d="M1787,164L1570,302L1866,376Z" fill="#78aeb9" stroke="#78aeb9" stroke-width="1.51"/><path d="M1637,543L1854,506L1866,376Z" fill="#60a4bb" stroke="#60a4bb" stroke-width="1.51"/><path d="M1570,302L1637,543L1866,376Z" fill="#6badbb" stroke="#6badbb" stroke-width="1.51"/><path d="M1587,-250L1585,-54L1756,-13Z" fill="#93bdcd" stroke="#93bdcd" stroke-width="1.51"/><path d="M1799,685L1580,774L1826,864Z" fill="#3997c5" stroke="#3997c5" stroke-width="1.51"/><path d="M1580,774L1568,877L1826,864Z" fill="#3695c3" stroke="#3695c3" stroke-width="1.51"/><path d="M1756,-13L1601,140L1787,164Z" fill="#88b5c1" stroke="#88b5c1" stroke-width="1.51"/><path d="M1601,140L1570,302L1787,164Z" fill="#81b6bf" stroke="#81b6bf" stroke-width="1.51"/><path d="M1637,543L1580,774L1799,685Z" fill="#4aa2c4" stroke="#4aa2c4" stroke-width="1.51"/><path d="M1585,-54L1601,140L1756,-13Z" fill="#8dbac6" stroke="#8dbac6" stroke-width="1.51"/><path d="M1103,-231L1204,-191L1452,-207Z" fill="#a8d7dc" stroke="#a8d7dc" stroke-width="1.51"/><path d="M1452,-207L1585,-54L1587,-250Z" fill="#9ac5d3" stroke="#9ac5d3" stroke-width="1.51"/><path d="M1568,877L1438,964L1594,1160Z" fill="#2f8ec0" stroke="#2f8ec0" stroke-width="1.51"/><path d="M1585,-54L1479,106L1601,140Z" fill="#8fbfc7" stroke="#8fbfc7" stroke-width="1.51"/><path d="M1430,1261L1250,1338L1626,1334Z" fill="#2b77ae" stroke="#2b77ae" stroke-width="1.51"/><path d="M1594,1160L1430,1261L1626,1334Z" fill="#2477b0" stroke="#2477b0" stroke-width="1.51"/><path d="M1570,302L1416,396L1637,543Z" fill="#6fb5c0" stroke="#6fb5c0" stroke-width="1.51"/><path d="M1416,396L1407,507L1637,543Z" fill="#68b6c4" stroke="#68b6c4" stroke-width="1.51"/><path d="M1447,770L1580,774L1637,543Z" fill="#4aa7c9" stroke="#4aa7c9" stroke-width="1.51"/><path d="M1407,507L1447,770L1637,543Z" fill="#58afc8" stroke="#58afc8" stroke-width="1.51"/><path d="M1447,-64L1479,106L1585,-54Z" fill="#94c3cc" stroke="#94c3cc" stroke-width="1.51"/><path d="M1452,-207L1447,-64L1585,-54Z" fill="#99c6d2" stroke="#99c6d2" stroke-width="1.51"/><path d="M1438,964L1379,1149L1594,1160Z" fill="#2f8abe" stroke="#2f8abe" stroke-width="1.51"/><path d="M1479,106L1570,302L1601,140Z" fill="#86bcc2" stroke="#86bcc2" stroke-width="1.51"/><path d="M1379,1149L1430,1261L1594,1160Z" fill="#2a81b9" stroke="#2a81b9" stroke-width="1.51"/><path d="M1447,770L1568,877L1580,774Z" fill="#3ea0c9" stroke="#3ea0c9" stroke-width="1.51"/><path d="M1479,106L1416,396L1570,302Z" fill="#81bec1" stroke="#81bec1" stroke-width="1.51"/><path d="M1447,770L1438,964L1568,877Z" fill="#3c9dc8" stroke="#3c9dc8" stroke-width="1.51"/><path d="M1407,507L1244,748L1447,770Z" fill="#55b3ce" stroke="#55b3ce" stroke-width="1.51"/><path d="M1286,899L1438,964L1447,770Z" fill="#40a1ca" stroke="#40a1ca" stroke-width="1.51"/><path d="M1247,-43L1264,131L1447,-64Z" fill="#9acfd1" stroke="#9acfd1" stroke-width="1.51"/><path d="M1447,-64L1264,131L1479,106Z" fill="#95c9cc" stroke="#95c9cc" stroke-width="1.51"/><path d="M1264,131L1416,396L1479,106Z" fill="#8ac6c6" stroke="#8ac6c6" stroke-width="1.51"/><path d="M1215,529L1244,748L1407,507Z" fill="#62bcce" stroke="#62bcce" stroke-width="1.51"/><path d="M1264,131L1218,391L1416,396Z" fill="#84c8c6" stroke="#84c8c6" stroke-width="1.51"/><path d="M1261,1146L1379,1149L1438,964Z" fill="#3591c2" stroke="#3591c2" stroke-width="1.51"/><path d="M1286,899L1261,1146L1438,964Z" fill="#3b9ac6" stroke="#3b9ac6" stroke-width="1.51"/><path d="M1247,-43L1447,-64L1452,-207Z" fill="#9dcdd4" stroke="#9dcdd4" stroke-width="1.51"/><path d="M1204,-191L1247,-43L1452,-207Z" fill="#a2d3d9" stroke="#a2d3d9" stroke-width="1.51"/><path d="M1244,748L1286,899L1447,770Z" fill="#49acd0" stroke="#49acd0" stroke-width="1.51"/><path d="M1379,1149L1261,1146L1430,1261Z" fill="#3188bd" stroke="#3188bd" stroke-width="1.51"/><path d="M1261,1146L1250,1338L1430,1261Z" fill="#3384b8" stroke="#3384b8" stroke-width="1.51"/><path d="M1218,391L1215,529L1407,507Z" fill="#71c2c9" stroke="#71c2c9" stroke-width="1.51"/><path d="M1218,391L1407,507L1416,396Z" fill="#74c0c7" stroke="#74c0c7" stroke-width="1.51"/><path d="M1215,529L1104,721L1244,748Z" fill="#61bcce" stroke="#61bcce" stroke-width="1.51"/><path d="M1053,1300L1250,1338L1261,1146Z" fill="#3f88b5" stroke="#3f88b5" stroke-width="1.51"/><path d="M1114,1109L1053,1300L1261,1146Z" fill="#4491bc" stroke="#4491bc" stroke-width="1.51"/><path d="M1053,344L1218,391L1264,131Z" fill="#8ccdc3" stroke="#8ccdc3" stroke-width="1.51"/><path d="M1033,169L1053,344L1264,131Z" fill="#96d2c4" stroke="#96d2c4" stroke-width="1.51"/><path d="M1244,748L1044,886L1286,899Z" fill="#50aecd" stroke="#50aecd" stroke-width="1.51"/><path d="M1114,1109L1261,1146L1286,899Z" fill="#429ac4" stroke="#429ac4" stroke-width="1.51"/><path d="M1044,886L1114,1109L1286,899Z" fill="#4ca5c6" stroke="#4ca5c6" stroke-width="1.51"/><path d="M1104,721L1044,886L1244,748Z" fill="#5ab6ce" stroke="#5ab6ce" stroke-width="1.51"/><path d="M1002,-71L1033,169L1247,-43Z" fill="#a4d8cd" stroke="#a4d8cd" stroke-width="1.51"/><path d="M1247,-43L1033,169L1264,131Z" fill="#9dd3cb" stroke="#9dd3cb" stroke-width="1.51"/><path d="M1038,600L1104,721L1215,529Z" fill="#6bc1cb" stroke="#6bc1cb" stroke-width="1.51"/><path d="M1204,-191L1002,-71L1247,-43Z" fill="#a7d8d4" stroke="#a7d8d4" stroke-width="1.51"/><path d="M1103,-231L1002,-71L1204,-191Z" fill="#addbd6" stroke="#addbd6" stroke-width="1.51"/><path d="M1053,344L1038,600L1215,529Z" fill="#79c8c6" stroke="#79c8c6" stroke-width="1.51"/><path d="M1053,344L1215,529L1218,391Z" fill="#7ec9c5" stroke="#7ec9c5" stroke-width="1.51"/><path d="M804,1241L650,1339L1053,1300Z" fill="#5b90ab" stroke="#5b90ab" stroke-width="1.51"/><path d="M891,501L1038,600L1053,344Z" fill="#80cdc3" stroke="#80cdc3" stroke-width="1.51"/><path d="M880,1126L1053,1300L1114,1109Z" fill="#4f96ba" stroke="#4f96ba" stroke-width="1.51"/><path d="M1044,886L880,1126L1114,1109Z" fill="#54a3bf" stroke="#54a3bf" stroke-width="1.51"/><path d="M840,-241L1002,-71L1103,-231Z" fill="#b4e0d4" stroke="#b4e0d4" stroke-width="1.51"/><path d="M816,777L1044,886L1104,721Z" fill="#63baca" stroke="#63baca" stroke-width="1.51"/><path d="M1038,600L816,777L1104,721Z" fill="#6bc1ca" stroke="#6bc1ca" stroke-width="1.51"/><path d="M292,1326L102,1349L491,1351Z" fill="#7b96a9" stroke="#7b96a9" stroke-width="1.51"/><path d="M840,-241L880,-65L1002,-71Z" fill="#b5e2cf" stroke="#b5e2cf" stroke-width="1.51"/><path d="M1002,-71L880,-65L1033,169Z" fill="#abddca" stroke="#abddca" stroke-width="1.51"/><path d="M880,-65L840,193L1033,169Z" fill="#a9ddc4" stroke="#a9ddc4" stroke-width="1.51"/><path d="M816,777L836,863L1044,886Z" fill="#67b9c6" stroke="#67b9c6" stroke-width="1.51"/><path d="M836,863L880,1126L1044,886Z" fill="#5fadc1" stroke="#5fadc1" stroke-width="1.51"/><path d="M880,1126L804,1241L1053,1300Z" fill="#5695b4" stroke="#5695b4" stroke-width="1.51"/><path d="M814,365L891,501L1053,344Z" fill="#8dd2bf" stroke="#8dd2bf" stroke-width="1.51"/><path d="M1033,169L840,193L1053,344Z" fill="#9ad7c1" stroke="#9ad7c1" stroke-width="1.51"/><path d="M840,193L814,365L1053,344Z" fill="#99d7bc" stroke="#99d7bc" stroke-width="1.51"/><path d="M891,501L816,777L1038,600Z" fill="#77c8c6" stroke="#77c8c6" stroke-width="1.51"/><path d="M634,483L644,790L816,777Z" fill="#83cac3" stroke="#83cac3" stroke-width="1.51"/><path d="M533,-237L731,-195L840,-241Z" fill="#c6e9cf" stroke="#c6e9cf" stroke-width="1.51"/><path d="M730,195L840,193L880,-65Z" fill="#afdfc2" stroke="#afdfc2" stroke-width="1.51"/><path d="M626,-54L730,195L880,-65Z" fill="#b7e3c4" stroke="#b7e3c4" stroke-width="1.51"/><path d="M840,-241L731,-195L880,-65Z" fill="#bce5cf" stroke="#bce5cf" stroke-width="1.51"/><path d="M836,863L683,965L880,1126Z" fill="#68aebe" stroke="#68aebe" stroke-width="1.51"/><path d="M683,965L681,1125L880,1126Z" fill="#69a7b9" stroke="#69a7b9" stroke-width="1.51"/><path d="M634,483L816,777L891,501Z" fill="#85cdc2" stroke="#85cdc2" stroke-width="1.51"/><path d="M814,365L634,483L891,501Z" fill="#92d4bd" stroke="#92d4bd" stroke-width="1.51"/><path d="M730,195L814,365L840,193Z" fill="#a4dbbc" stroke="#a4dbbc" stroke-width="1.51"/><path d="M731,-195L626,-54L880,-65Z" fill="#bde5ca" stroke="#bde5ca" stroke-width="1.51"/><path d="M681,1125L804,1241L880,1126Z" fill="#639eb6" stroke="#639eb6" stroke-width="1.51"/><path d="M816,777L644,790L836,863Z" fill="#75bfc4" stroke="#75bfc4" stroke-width="1.51"/><path d="M644,790L683,965L836,863Z" fill="#74bac1" stroke="#74bac1" stroke-width="1.51"/><path d="M730,195L621,301L814,365Z" fill="#a6dcb9" stroke="#a6dcb9" stroke-width="1.51"/><path d="M621,301L634,483L814,365Z" fill="#9fd9b9" stroke="#9fd9b9" stroke-width="1.51"/><path d="M681,1125L650,1339L804,1241Z" fill="#6799ae" stroke="#6799ae" stroke-width="1.51"/><path d="M634,483L492,764L644,790Z" fill="#8bcdc3" stroke="#8bcdc3" stroke-width="1.51"/><path d="M626,-54L509,161L730,195Z" fill="#bbe4bd" stroke="#bbe4bd" stroke-width="1.51"/><path d="M533,-237L626,-54L731,-195Z" fill="#c8eacb" stroke="#c8eacb" stroke-width="1.51"/><path d="M509,161L621,301L730,195Z" fill="#b2e1b9" stroke="#b2e1b9" stroke-width="1.51"/><path d="M621,301L493,358L634,483Z" fill="#a6dcb8" stroke="#a6dcb8" stroke-width="1.51"/><path d="M427,563L492,764L634,483Z" fill="#95d3c2" stroke="#95d3c2" stroke-width="1.51"/><path d="M516,1081L491,1351L650,1339Z" fill="#719aac" stroke="#719aac" stroke-width="1.51"/><path d="M516,1081L650,1339L681,1125Z" fill="#6fa1b2" stroke="#6fa1b2" stroke-width="1.51"/><path d="M644,790L473,975L683,965Z" fill="#7cb9be" stroke="#7cb9be" stroke-width="1.51"/><path d="M516,1081L681,1125L683,965Z" fill="#73abb7" stroke="#73abb7" stroke-width="1.51"/><path d="M473,975L516,1081L683,965Z" fill="#7ab1bb" stroke="#7ab1bb" stroke-width="1.51"/><path d="M533,-237L467,-70L626,-54Z" fill="#caebcb" stroke="#caebcb" stroke-width="1.51"/><path d="M467,-70L509,161L626,-54Z" fill="#c4e8c4" stroke="#c4e8c4" stroke-width="1.51"/><path d="M492,764L473,975L644,790Z" fill="#83c1c2" stroke="#83c1c2" stroke-width="1.51"/><path d="M493,358L427,563L634,483Z" fill="#a1dabd" stroke="#a1dabd" stroke-width="1.51"/><path d="M509,161L493,358L621,301Z" fill="#b1e0b9" stroke="#b1e0b9" stroke-width="1.51"/><path d="M307,-18L338,141L467,-70Z" fill="#cdecc8" stroke="#cdecc8" stroke-width="1.51"/><path d="M286,1103L292,1326L491,1351Z" fill="#7b9db0" stroke="#7b9db0" stroke-width="1.51"/><path d="M467,-70L338,141L509,161Z" fill="#c6e9c3" stroke="#c6e9c3" stroke-width="1.51"/><path d="M325,301L493,358L509,161Z" fill="#b7e3bb" stroke="#b7e3bb" stroke-width="1.51"/><path d="M286,1103L491,1351L516,1081Z" fill="#7aa4b6" stroke="#7aa4b6" stroke-width="1.51"/><path d="M291,-223L467,-70L533,-237Z" fill="#d3eed0" stroke="#d3eed0" stroke-width="1.51"/><path d="M238,980L473,975L492,764Z" fill="#87bec3" stroke="#87bec3" stroke-width="1.51"/><path d="M321,556L427,563L493,358Z" fill="#a4dbc0" stroke="#a4dbc0" stroke-width="1.51"/><path d="M338,141L325,301L509,161Z" fill="#c0e6bf" stroke="#c0e6bf" stroke-width="1.51"/><path d="M473,975L286,1103L516,1081Z" fill="#7fb0bc" stroke="#7fb0bc" stroke-width="1.51"/><path d="M427,563L246,683L492,764Z" fill="#97d2c7" stroke="#97d2c7" stroke-width="1.51"/><path d="M325,301L321,556L493,358Z" fill="#aedfbe" stroke="#aedfbe" stroke-width="1.51"/><path d="M246,683L238,980L492,764Z" fill="#92c9ca" stroke="#92c9ca" stroke-width="1.51"/><path d="M321,556L246,683L427,563Z" fill="#9fd7c6" stroke="#9fd7c6" stroke-width="1.51"/><path d="M291,-223L307,-18L467,-70Z" fill="#d3eece" stroke="#d3eece" stroke-width="1.51"/><path d="M238,980L286,1103L473,975Z" fill="#86b4c0" stroke="#86b4c0" stroke-width="1.51"/><path d="M145,694L147,976L238,980Z" fill="#92c3ca" stroke="#92c3ca" stroke-width="1.51"/><path d="M145,694L238,980L246,683Z" fill="#97ccce" stroke="#97ccce" stroke-width="1.51"/><path d="M286,1103L113,1160L292,1326Z" fill="#83a6ba" stroke="#83a6ba" stroke-width="1.51"/><path d="M291,-223L145,-229L307,-18Z" fill="#dbf1d4" stroke="#dbf1d4" stroke-width="1.51"/><path d="M60,-7L124,216L307,-18Z" fill="#d3eecc" stroke="#d3eecc" stroke-width="1.51"/><path d="M118,346L85,478L321,556Z" fill="#b1e0c6" stroke="#b1e0c6" stroke-width="1.51"/><path d="M118,346L321,556L325,301Z" fill="#b4e2c1" stroke="#b4e2c1" stroke-width="1.51"/><path d="M124,216L325,301L338,141Z" fill="#c4e8c2" stroke="#c4e8c2" stroke-width="1.51"/><path d="M307,-18L124,216L338,141Z" fill="#cdecc6" stroke="#cdecc6" stroke-width="1.51"/><path d="M145,-229L60,-7L307,-18Z" fill="#d9f0d3" stroke="#d9f0d3" stroke-width="1.51"/><path d="M124,216L118,346L325,301Z" fill="#c1e7c2" stroke="#c1e7c2" stroke-width="1.51"/><path d="M85,478L246,683L321,556Z" fill="#a6dac8" stroke="#a6dac8" stroke-width="1.51"/><path d="M85,478L145,694L246,683Z" fill="#a4d8cc" stroke="#a4d8cc" stroke-width="1.51"/><path d="M113,1160L102,1349L292,1326Z" fill="#829db4" stroke="#829db4" stroke-width="1.51"/><path d="M238,980L147,976L286,1103Z" fill="#8ab6c3" stroke="#8ab6c3" stroke-width="1.51"/><path d="M147,976L113,1160L286,1103Z" fill="#89b1c2" stroke="#89b1c2" stroke-width="1.51"/><path d="M60,-7L-100,190L124,216Z" fill="#d3eecd" stroke="#d3eecd" stroke-width="1.51"/><path d="M-132,-271L60,-7L145,-229Z" fill="#e2f4dc" stroke="#e2f4dc" stroke-width="1.51"/><path d="M85,478L-93,768L145,694Z" fill="#a6d8d1" stroke="#a6d8d1" stroke-width="1.51"/><path d="M-93,768L-72,929L145,694Z" fill="#9dced4" stroke="#9dced4" stroke-width="1.51"/><path d="M-71,1107L113,1160L147,976Z" fill="#8cb3c5" stroke="#8cb3c5" stroke-width="1.51"/><path d="M-72,929L-71,1107L147,976Z" fill="#91baca" stroke="#91baca" stroke-width="1.51"/><path d="M145,694L-72,929L147,976Z" fill="#96c6cf" stroke="#96c6cf" stroke-width="1.51"/><path d="M-136,478L-93,768L85,478Z" fill="#aeddd2" stroke="#aeddd2" stroke-width="1.51"/><path d="M-132,-271L-98,-5L60,-7Z" fill="#e0f4db" stroke="#e0f4db" stroke-width="1.51"/><path d="M-100,1350L102,1349L113,1160Z" fill="#859eb7" stroke="#859eb7" stroke-width="1.51"/><path d="M-71,1107L-100,1350L113,1160Z" fill="#8aa8c1" stroke="#8aa8c1" stroke-width="1.51"/><path d="M-88,383L85,478L118,346Z" fill="#bbe4c8" stroke="#bbe4c8" stroke-width="1.51"/><path d="M-100,190L-88,383L118,346Z" fill="#c5e9c8" stroke="#c5e9c8" stroke-width="1.51"/><path d="M-100,190L118,346L124,216Z" fill="#c8eac8" stroke="#c8eac8" stroke-width="1.51"/><path d="M-98,-5L-100,190L60,-7Z" fill="#d9f0d3" stroke="#d9f0d3" stroke-width="1.51"/><path d="M-88,383L-136,478L85,478Z" fill="#b9e3cd" stroke="#b9e3cd" stroke-width="1.51"/><path d="M-249,1083L-335,1336L-100,1350Z" fill="#8ea5c2" stroke="#8ea5c2" stroke-width="1.51"/><path d="M-132,-271L-220,-164L-98,-5Z" fill="#e7f6e0" stroke="#e7f6e0" stroke-width="1.51"/><path d="M-220,-164L-219,-4L-98,-5Z" fill="#e3f4dd" stroke="#e3f4dd" stroke-width="1.51"/><path d="M-239,156L-100,190L-98,-5Z" fill="#daf1d3" stroke="#daf1d3" stroke-width="1.51"/><path d="M-219,-4L-239,156L-98,-5Z" fill="#def2d8" stroke="#def2d8" stroke-width="1.51"/><path d="M-136,478L-265,482L-93,768Z" fill="#b2dfd5" stroke="#b2dfd5" stroke-width="1.51"/><path d="M-265,482L-281,786L-93,768Z" fill="#acdada" stroke="#acdada" stroke-width="1.51"/><path d="M-100,190L-242,363L-88,383Z" fill="#c9eacc" stroke="#c9eacc" stroke-width="1.51"/><path d="M-315,914L-249,1083L-72,929Z" fill="#99c0d2" stroke="#99c0d2" stroke-width="1.51"/><path d="M-93,768L-281,786L-72,929Z" fill="#a0cdd7" stroke="#a0cdd7" stroke-width="1.51"/><path d="M-281,786L-315,914L-72,929Z" fill="#9fc9d7" stroke="#9fc9d7" stroke-width="1.51"/><path d="M-72,929L-249,1083L-71,1107Z" fill="#94b9cd" stroke="#94b9cd" stroke-width="1.51"/><path d="M-249,1083L-100,1350L-71,1107Z" fill="#8eacc7" stroke="#8eacc7" stroke-width="1.51"/><path d="M-239,156L-242,363L-100,190Z" fill="#d1edd0" stroke="#d1edd0" stroke-width="1.51"/><path d="M-242,363L-136,478L-88,383Z" fill="#c1e6ce" stroke="#c1e6ce" stroke-width="1.51"/><path d="M-242,363L-265,482L-136,478Z" fill="#bfe6d1" stroke="#bfe6d1" stroke-width="1.51"/><path d="M-315,914L-265,482L-239,156Z" fill="#bae4d6" stroke="#bae4d6" stroke-width="1.51"/><path d="M-315,914L-239,156L-220,-164Z" fill="#ceecd0" stroke="#ceecd0" stroke-width="1.51"/><path d="M-220,-164L-239,156L-219,-4Z" fill="#e2f4dc" stroke="#e2f4dc" stroke-width="1.51"/><path d="M-265,482L-242,363L-239,156Z" fill="#cbebcf" stroke="#cbebcf" stroke-width="1.51"/><path d="M-315,914L-335,1336L-249,1083Z" fill="#96b4d0" stroke="#96b4d0" stroke-width="1.51"/><path d="M-315,914L-281,786L-265,482Z" fill="#abd8de" stroke="#abd8de" stroke-width="1.51"/></svg>